<?xml version="1.0" encoding="UTF-8"?>
<!DOCTYPE svg PUBLIC "-//W3C//DTD SVG 1.1//EN" "http://www.w3.org/Graphics/SVG/1.1/DTD/svg11.dtd">
<svg xmlns="http://www.w3.org/2000/svg" version="1.1" width="980px" height="974px" style="shape-rendering:geometricPrecision; text-rendering:geometricPrecision; image-rendering:optimizeQuality; fill-rule:evenodd; clip-rule:evenodd" xmlns:xlink="http://www.w3.org/1999/xlink">
<g><path style="opacity:1" fill="#040404" d="M 236.5,-0.5 C 243.833,-0.5 251.167,-0.5 258.5,-0.5C 276.895,0.760109 294.895,4.59344 312.5,11C 399.164,39.7751 484.831,71.1084 569.5,105C 591.084,114.459 612.084,124.959 632.5,136.5C 632.821,138.048 633.821,138.715 635.5,138.5C 636.167,138.833 636.833,139.167 637.5,139.5C 637.821,141.048 638.821,141.715 640.5,141.5C 641.167,141.833 641.833,142.167 642.5,142.5C 642.821,144.048 643.821,144.715 645.5,144.5C 662.977,155.637 679.31,168.304 694.5,182.5C 694.833,184.833 696.167,186.167 698.5,186.5C 700.167,187.5 701.5,188.833 702.5,190.5C 703.419,193.089 705.086,195.089 707.5,196.5C 710.167,198.5 712.5,200.833 714.5,203.5C 714.427,205.027 715.094,206.027 716.5,206.5C 717.833,207.167 718.833,208.167 719.5,209.5C 719.427,211.027 720.094,212.027 721.5,212.5C 722.5,212.833 723.167,213.5 723.5,214.5C 723.427,216.027 724.094,217.027 725.5,217.5C 727.262,218.262 728.262,219.596 728.5,221.5C 728.738,223.404 729.738,224.738 731.5,225.5C 731.427,227.027 732.094,228.027 733.5,228.5C 733.427,230.027 734.094,231.027 735.5,231.5C 735.427,233.027 736.094,234.027 737.5,234.5C 737.427,236.027 738.094,237.027 739.5,237.5C 751.431,255.704 760.431,275.37 766.5,296.5C 766.41,299.152 767.076,301.485 768.5,303.5C 773.32,320.431 776.82,337.764 779,355.5C 784.825,396.769 790.159,438.103 795,479.5C 810.755,617.383 825.255,755.383 838.5,893.5C 881.159,894.258 923.826,894.758 966.5,895C 970.668,898.002 974.335,901.502 977.5,905.5C 977.41,908.152 978.076,910.485 979.5,912.5C 979.5,928.167 979.5,943.833 979.5,959.5C 977.728,964.951 974.394,969.284 969.5,972.5C 871.763,972.831 774.096,972.497 676.5,971.5C 669.302,966.437 665.802,959.437 666,950.5C 665.143,937.129 665.476,923.796 667,910.5C 667.2,908.68 668.034,907.347 669.5,906.5C 670.906,906.027 671.573,905.027 671.5,903.5C 671.833,902.5 672.5,901.833 673.5,901.5C 676.225,900.287 678.559,898.454 680.5,896C 700.004,895.832 719.338,895.332 738.5,894.5C 742.407,894.487 746.074,893.653 749.5,892C 734.148,730.652 716.648,569.485 697,408.5C 693.511,379.563 688.511,350.896 682,322.5C 675.876,303.916 666.876,286.916 655,271.5C 646.03,260.696 636.53,250.363 626.5,240.5C 625.738,238.738 624.404,237.738 622.5,237.5C 621.167,236.833 620.167,235.833 619.5,234.5C 619.027,233.094 618.027,232.427 616.5,232.5C 612.854,230.183 609.52,227.516 606.5,224.5C 606.027,223.094 605.027,222.427 603.5,222.5C 603.027,221.094 602.027,220.427 600.5,220.5C 600.027,219.094 599.027,218.427 597.5,218.5C 597.027,217.094 596.027,216.427 594.5,216.5C 590.164,214.668 586.164,212.335 582.5,209.5C 582.027,208.094 581.027,207.427 579.5,207.5C 559.911,197.54 539.911,188.374 519.5,180C 486.666,167.001 453.666,154.501 420.5,142.5C 419.365,140.787 417.698,140.12 415.5,140.5C 409.722,138.776 404.055,136.776 398.5,134.5C 397.365,132.787 395.698,132.12 393.5,132.5C 382.086,128.696 370.753,124.696 359.5,120.5C 358.365,118.787 356.698,118.12 354.5,118.5C 344.723,115.443 335.057,112.11 325.5,108.5C 324.365,106.787 322.698,106.12 320.5,106.5C 308.61,102.871 296.943,98.8707 285.5,94.5C 283.485,93.0762 281.152,92.4095 278.5,92.5C 265.997,89.5204 253.331,88.3538 240.5,89C 226.068,89.9637 214.901,96.4637 207,108.5C 198.486,121.223 194.986,135.223 196.5,150.5C 196.259,152.898 196.926,154.898 198.5,156.5C 200.07,159.314 201.403,162.314 202.5,165.5C 202.427,167.027 203.094,168.027 204.5,168.5C 205.167,168.5 205.5,168.833 205.5,169.5C 205.427,171.027 206.094,172.027 207.5,172.5C 212.664,177.496 217.997,182.329 223.5,187C 229.675,190.588 236.009,193.922 242.5,197C 310.5,221.667 378.5,246.333 446.5,271C 466.266,277.885 485.266,286.385 503.5,296.5C 503.821,298.048 504.821,298.715 506.5,298.5C 515.216,303.527 523.216,309.527 530.5,316.5C 530.5,318.5 531.5,319.5 533.5,319.5C 535.167,320.5 536.5,321.833 537.5,323.5C 537.427,325.027 538.094,326.027 539.5,326.5C 541.167,327.5 542.5,328.833 543.5,330.5C 543.427,332.027 544.094,333.027 545.5,333.5C 546.167,333.5 546.5,333.833 546.5,334.5C 546.738,336.404 547.738,337.738 549.5,338.5C 549.427,340.027 550.094,341.027 551.5,341.5C 551.427,343.027 552.094,344.027 553.5,344.5C 553.427,346.027 554.094,347.027 555.5,347.5C 572.202,375.171 578.368,405.171 574,437.5C 570.975,457.935 565.308,477.601 557,496.5C 556.221,497.728 555.221,498.728 554,499.5C 547.436,497.134 541.269,494.134 535.5,490.5C 535.027,489.094 534.027,488.427 532.5,488.5C 529.515,487.674 526.849,486.341 524.5,484.5C 524.027,483.094 523.027,482.427 521.5,482.5C 519.847,482.34 518.514,481.674 517.5,480.5C 517.027,479.094 516.027,478.427 514.5,478.5C 511.24,477.226 508.24,475.56 505.5,473.5C 505.027,472.094 504.027,471.427 502.5,471.5C 501.508,471.672 500.842,471.338 500.5,470.5C 500.027,469.094 499.027,468.427 497.5,468.5C 497.027,467.094 496.027,466.427 494.5,466.5C 490.608,464.938 487.275,462.605 484.5,459.5C 483.738,457.738 482.404,456.738 480.5,456.5C 480.833,453.833 481.167,451.167 481.5,448.5C 482.924,446.485 483.59,444.152 483.5,441.5C 488.365,425.394 487.365,409.728 480.5,394.5C 480.715,392.821 480.048,391.821 478.5,391.5C 474.511,385.845 469.844,380.845 464.5,376.5C 464.027,375.094 463.027,374.427 461.5,374.5C 461.027,373.094 460.027,372.427 458.5,372.5C 456.847,372.34 455.514,371.674 454.5,370.5C 454.027,369.094 453.027,368.427 451.5,368.5C 431.051,359.942 410.385,351.942 389.5,344.5C 388.365,342.787 386.698,342.12 384.5,342.5C 377.678,340.56 371.011,338.226 364.5,335.5C 363.365,333.787 361.698,333.12 359.5,333.5C 357.421,333.029 355.421,332.363 353.5,331.5C 352.365,329.787 350.698,329.12 348.5,329.5C 326.753,322.029 305.086,314.362 283.5,306.5C 282.365,304.787 280.698,304.12 278.5,304.5C 273.421,303.029 268.421,301.363 263.5,299.5C 262.365,297.787 260.698,297.12 258.5,297.5C 254.421,296.363 250.421,295.029 246.5,293.5C 245.365,291.787 243.698,291.12 241.5,291.5C 219.772,285.379 199.439,276.379 180.5,264.5C 180.027,263.094 179.027,262.427 177.5,262.5C 176.738,260.738 175.404,259.738 173.5,259.5C 171.596,259.262 170.262,258.262 169.5,256.5C 169.027,255.094 168.027,254.427 166.5,254.5C 165.167,253.833 164.167,252.833 163.5,251.5C 163.027,250.094 162.027,249.427 160.5,249.5C 149.383,240.055 139.717,229.388 131.5,217.5C 131.446,215.368 130.446,214.035 128.5,213.5C 127.599,212.71 126.932,211.71 126.5,210.5C 126.715,208.821 126.048,207.821 124.5,207.5C 109.205,178.945 104.371,148.612 110,116.5C 110.406,113.258 111.239,110.258 112.5,107.5C 113.924,105.485 114.59,103.152 114.5,100.5C 117.44,88.9886 122.107,78.322 128.5,68.5C 129.906,68.0269 130.573,67.0269 130.5,65.5C 132.855,60.1205 136.188,55.4538 140.5,51.5C 141.906,51.0269 142.573,50.0269 142.5,48.5C 143.167,47.1667 144.167,46.1667 145.5,45.5C 146.906,45.0269 147.573,44.0269 147.5,42.5C 149.167,40.1667 151.167,38.1667 153.5,36.5C 155.749,35.9202 157.415,34.5869 158.5,32.5C 161.576,28.7931 165.242,25.7931 169.5,23.5C 171.027,23.573 172.027,22.9063 172.5,21.5C 174.027,21.573 175.027,20.9063 175.5,19.5C 177.027,19.573 178.027,18.9063 178.5,17.5C 179.514,16.3263 180.847,15.6596 182.5,15.5C 184.027,15.573 185.027,14.9063 185.5,13.5C 191.659,9.76073 198.325,7.09406 205.5,5.5C 208.152,5.59047 210.485,4.92381 212.5,3.5C 220.403,1.51408 228.403,0.180747 236.5,-0.5 Z"/></g>
<g><path style="opacity:1" fill="#656565" d="M 212.5,3.5 C 210.485,4.92381 208.152,5.59047 205.5,5.5C 207.515,4.07619 209.848,3.40953 212.5,3.5 Z"/></g>
<g><path style="opacity:1" fill="#7d7d7d" d="M 185.5,13.5 C 185.027,14.9063 184.027,15.573 182.5,15.5C 182.973,14.0937 183.973,13.427 185.5,13.5 Z"/></g>
<g><path style="opacity:1" fill="#818181" d="M 178.5,17.5 C 178.027,18.9063 177.027,19.573 175.5,19.5C 175.973,18.0937 176.973,17.427 178.5,17.5 Z"/></g>
<g><path style="opacity:1" fill="#797979" d="M 175.5,19.5 C 175.027,20.9063 174.027,21.573 172.5,21.5C 172.973,20.0937 173.973,19.427 175.5,19.5 Z"/></g>
<g><path style="opacity:1" fill="#767676" d="M 172.5,21.5 C 172.027,22.9063 171.027,23.573 169.5,23.5C 169.973,22.0937 170.973,21.427 172.5,21.5 Z"/></g>
<g><path style="opacity:1" fill="#7a7a7a" d="M 158.5,32.5 C 157.415,34.5869 155.749,35.9202 153.5,36.5C 154.585,34.4131 156.251,33.0798 158.5,32.5 Z"/></g>
<g><path style="opacity:1" fill="#949494" d="M 147.5,42.5 C 147.573,44.0269 146.906,45.0269 145.5,45.5C 145.427,43.9731 146.094,42.9731 147.5,42.5 Z"/></g>
<g><path style="opacity:1" fill="#7a7a7a" d="M 142.5,48.5 C 142.573,50.0269 141.906,51.0269 140.5,51.5C 140.427,49.9731 141.094,48.9731 142.5,48.5 Z"/></g>
<g><path style="opacity:1" fill="#8d8d8d" d="M 130.5,65.5 C 130.573,67.0269 129.906,68.0269 128.5,68.5C 128.427,66.9731 129.094,65.9731 130.5,65.5 Z"/></g>
<g><path style="opacity:1" fill="#656565" d="M 278.5,92.5 C 281.152,92.4095 283.485,93.0762 285.5,94.5C 282.848,94.5905 280.515,93.9238 278.5,92.5 Z"/></g>
<g><path style="opacity:1" fill="#6a6a6a" d="M 114.5,100.5 C 114.59,103.152 113.924,105.485 112.5,107.5C 112.41,104.848 113.076,102.515 114.5,100.5 Z"/></g>
<g><path style="opacity:1" fill="#7b7b7b" d="M 320.5,106.5 C 322.698,106.12 324.365,106.787 325.5,108.5C 323.597,108.204 321.93,107.537 320.5,106.5 Z"/></g>
<g><path style="opacity:1" fill="#777777" d="M 354.5,118.5 C 356.698,118.12 358.365,118.787 359.5,120.5C 357.597,120.204 355.93,119.537 354.5,118.5 Z"/></g>
<g><path style="opacity:1" fill="#757575" d="M 393.5,132.5 C 395.698,132.12 397.365,132.787 398.5,134.5C 396.597,134.204 394.93,133.537 393.5,132.5 Z"/></g>
<g><path style="opacity:1" fill="#838383" d="M 632.5,136.5 C 633.71,136.932 634.71,137.599 635.5,138.5C 633.821,138.715 632.821,138.048 632.5,136.5 Z"/></g>
<g><path style="opacity:1" fill="#777777" d="M 415.5,140.5 C 417.698,140.12 419.365,140.787 420.5,142.5C 418.597,142.204 416.93,141.537 415.5,140.5 Z"/></g>
<g><path style="opacity:1" fill="#7a7a7a" d="M 637.5,139.5 C 638.71,139.932 639.71,140.599 640.5,141.5C 638.821,141.715 637.821,141.048 637.5,139.5 Z"/></g>
<g><path style="opacity:1" fill="#7f7f7f" d="M 642.5,142.5 C 643.71,142.932 644.71,143.599 645.5,144.5C 643.821,144.715 642.821,144.048 642.5,142.5 Z"/></g>
<g><path style="opacity:1" fill="#7a7a7a" d="M 196.5,150.5 C 197.738,152.214 198.405,154.214 198.5,156.5C 196.926,154.898 196.259,152.898 196.5,150.5 Z"/></g>
<g><path style="opacity:1" fill="#7a7a7a" d="M 202.5,165.5 C 203.906,165.973 204.573,166.973 204.5,168.5C 203.094,168.027 202.427,167.027 202.5,165.5 Z"/></g>
<g><path style="opacity:1" fill="#8f8f8f" d="M 205.5,169.5 C 206.906,169.973 207.573,170.973 207.5,172.5C 206.094,172.027 205.427,171.027 205.5,169.5 Z"/></g>
<g><path style="opacity:1" fill="#ababab" d="M 694.5,182.5 C 696.167,183.5 697.5,184.833 698.5,186.5C 696.167,186.167 694.833,184.833 694.5,182.5 Z"/></g>
<g><path style="opacity:1" fill="#a0a0a0" d="M 702.5,190.5 C 704.914,191.911 706.581,193.911 707.5,196.5C 705.086,195.089 703.419,193.089 702.5,190.5 Z"/></g>
<g><path style="opacity:1" fill="#9d9d9d" d="M 714.5,203.5 C 715.906,203.973 716.573,204.973 716.5,206.5C 715.094,206.027 714.427,205.027 714.5,203.5 Z"/></g>
<g><path style="opacity:1" fill="#838383" d="M 124.5,207.5 C 126.048,207.821 126.715,208.821 126.5,210.5C 125.599,209.71 124.932,208.71 124.5,207.5 Z"/></g>
<g><path style="opacity:1" fill="#9a9a9a" d="M 579.5,207.5 C 581.027,207.427 582.027,208.094 582.5,209.5C 580.973,209.573 579.973,208.906 579.5,207.5 Z"/></g>
<g><path style="opacity:1" fill="#9b9b9b" d="M 719.5,209.5 C 720.906,209.973 721.573,210.973 721.5,212.5C 720.094,212.027 719.427,211.027 719.5,209.5 Z"/></g>
<g><path style="opacity:1" fill="#797979" d="M 128.5,213.5 C 130.446,214.035 131.446,215.368 131.5,217.5C 130.026,216.564 129.026,215.23 128.5,213.5 Z"/></g>
<g><path style="opacity:1" fill="#9c9c9c" d="M 723.5,214.5 C 724.906,214.973 725.573,215.973 725.5,217.5C 724.094,217.027 723.427,216.027 723.5,214.5 Z"/></g>
<g><path style="opacity:1" fill="#848484" d="M 594.5,216.5 C 596.027,216.427 597.027,217.094 597.5,218.5C 595.973,218.573 594.973,217.906 594.5,216.5 Z"/></g>
<g><path style="opacity:1" fill="#929292" d="M 597.5,218.5 C 599.027,218.427 600.027,219.094 600.5,220.5C 598.973,220.573 597.973,219.906 597.5,218.5 Z"/></g>
<g><path style="opacity:1" fill="#878787" d="M 600.5,220.5 C 602.027,220.427 603.027,221.094 603.5,222.5C 601.973,222.573 600.973,221.906 600.5,220.5 Z"/></g>
<g><path style="opacity:1" fill="#767676" d="M 603.5,222.5 C 605.027,222.427 606.027,223.094 606.5,224.5C 604.973,224.573 603.973,223.906 603.5,222.5 Z"/></g>
<g><path style="opacity:1" fill="#7a7a7a" d="M 728.5,221.5 C 730.262,222.262 731.262,223.596 731.5,225.5C 729.738,224.738 728.738,223.404 728.5,221.5 Z"/></g>
<g><path style="opacity:1" fill="#878787" d="M 731.5,225.5 C 732.906,225.973 733.573,226.973 733.5,228.5C 732.094,228.027 731.427,227.027 731.5,225.5 Z"/></g>
<g><path style="opacity:1" fill="#7f7f7f" d="M 733.5,228.5 C 734.906,228.973 735.573,229.973 735.5,231.5C 734.094,231.027 733.427,230.027 733.5,228.5 Z"/></g>
<g><path style="opacity:1" fill="#8b8b8b" d="M 616.5,232.5 C 618.027,232.427 619.027,233.094 619.5,234.5C 617.973,234.573 616.973,233.906 616.5,232.5 Z"/></g>
<g><path style="opacity:1" fill="#7e7e7e" d="M 735.5,231.5 C 736.906,231.973 737.573,232.973 737.5,234.5C 736.094,234.027 735.427,233.027 735.5,231.5 Z"/></g>
<g><path style="opacity:1" fill="#8f8f8f" d="M 737.5,234.5 C 738.906,234.973 739.573,235.973 739.5,237.5C 738.094,237.027 737.427,236.027 737.5,234.5 Z"/></g>
<g><path style="opacity:1" fill="#929292" d="M 622.5,237.5 C 624.404,237.738 625.738,238.738 626.5,240.5C 624.596,240.262 623.262,239.262 622.5,237.5 Z"/></g>
<g><path style="opacity:1" fill="#9f9f9f" d="M 160.5,249.5 C 162.027,249.427 163.027,250.094 163.5,251.5C 161.973,251.573 160.973,250.906 160.5,249.5 Z"/></g>
<g><path style="opacity:1" fill="#969696" d="M 166.5,254.5 C 168.027,254.427 169.027,255.094 169.5,256.5C 167.973,256.573 166.973,255.906 166.5,254.5 Z"/></g>
<g><path style="opacity:1" fill="#7c7c7c" d="M 173.5,259.5 C 175.404,259.738 176.738,260.738 177.5,262.5C 175.596,262.262 174.262,261.262 173.5,259.5 Z"/></g>
<g><path style="opacity:1" fill="#9f9f9f" d="M 177.5,262.5 C 179.027,262.427 180.027,263.094 180.5,264.5C 178.973,264.573 177.973,263.906 177.5,262.5 Z"/></g>
<g><path style="opacity:1" fill="#767676" d="M 241.5,291.5 C 243.698,291.12 245.365,291.787 246.5,293.5C 244.597,293.204 242.93,292.537 241.5,291.5 Z"/></g>
<g><path style="opacity:1" fill="#7b7b7b" d="M 258.5,297.5 C 260.698,297.12 262.365,297.787 263.5,299.5C 261.597,299.204 259.93,298.537 258.5,297.5 Z"/></g>
<g><path style="opacity:1" fill="#7c7c7c" d="M 503.5,296.5 C 504.71,296.932 505.71,297.599 506.5,298.5C 504.821,298.715 503.821,298.048 503.5,296.5 Z"/></g>
<g><path style="opacity:1" fill="#6c6c6c" d="M 766.5,296.5 C 767.924,298.515 768.59,300.848 768.5,303.5C 767.076,301.485 766.41,299.152 766.5,296.5 Z"/></g>
<g><path style="opacity:1" fill="#777777" d="M 278.5,304.5 C 280.698,304.12 282.365,304.787 283.5,306.5C 281.597,306.204 279.93,305.537 278.5,304.5 Z"/></g>
<g><path style="opacity:1" fill="#a5a5a5" d="M 530.5,316.5 C 531.833,317.167 532.833,318.167 533.5,319.5C 531.5,319.5 530.5,318.5 530.5,316.5 Z"/></g>
<g><path style="opacity:1" fill="#989898" d="M 537.5,323.5 C 538.906,323.973 539.573,324.973 539.5,326.5C 538.094,326.027 537.427,325.027 537.5,323.5 Z"/></g>
<g><path style="opacity:1" fill="#777777" d="M 348.5,329.5 C 350.698,329.12 352.365,329.787 353.5,331.5C 351.597,331.204 349.93,330.537 348.5,329.5 Z"/></g>
<g><path style="opacity:1" fill="#878787" d="M 543.5,330.5 C 544.906,330.973 545.573,331.973 545.5,333.5C 544.094,333.027 543.427,332.027 543.5,330.5 Z"/></g>
<g><path style="opacity:1" fill="#797979" d="M 359.5,333.5 C 361.698,333.12 363.365,333.787 364.5,335.5C 362.597,335.204 360.93,334.537 359.5,333.5 Z"/></g>
<g><path style="opacity:1" fill="#7a7a7a" d="M 546.5,334.5 C 548.262,335.262 549.262,336.596 549.5,338.5C 547.738,337.738 546.738,336.404 546.5,334.5 Z"/></g>
<g><path style="opacity:1" fill="#7f7f7f" d="M 549.5,338.5 C 550.906,338.973 551.573,339.973 551.5,341.5C 550.094,341.027 549.427,340.027 549.5,338.5 Z"/></g>
<g><path style="opacity:1" fill="#757575" d="M 384.5,342.5 C 386.698,342.12 388.365,342.787 389.5,344.5C 387.597,344.204 385.93,343.537 384.5,342.5 Z"/></g>
<g><path style="opacity:1" fill="#757575" d="M 551.5,341.5 C 552.906,341.973 553.573,342.973 553.5,344.5C 552.094,344.027 551.427,343.027 551.5,341.5 Z"/></g>
<g><path style="opacity:1" fill="#868686" d="M 553.5,344.5 C 554.906,344.973 555.573,345.973 555.5,347.5C 554.094,347.027 553.427,346.027 553.5,344.5 Z"/></g>
<g><path style="opacity:1" fill="#a1a1a1" d="M 451.5,368.5 C 453.027,368.427 454.027,369.094 454.5,370.5C 452.973,370.573 451.973,369.906 451.5,368.5 Z"/></g>
<g><path style="opacity:1" fill="#898989" d="M 458.5,372.5 C 460.027,372.427 461.027,373.094 461.5,374.5C 459.973,374.573 458.973,373.906 458.5,372.5 Z"/></g>
<g><path style="opacity:1" fill="#878787" d="M 461.5,374.5 C 463.027,374.427 464.027,375.094 464.5,376.5C 462.973,376.573 461.973,375.906 461.5,374.5 Z"/></g>
<g><path style="opacity:1" fill="#7a7a7a" d="M 478.5,391.5 C 480.048,391.821 480.715,392.821 480.5,394.5C 479.599,393.71 478.932,392.71 478.5,391.5 Z"/></g>
<g><path style="opacity:1" fill="#020202" d="M 460.5,504.5 C 460.821,506.048 461.821,506.715 463.5,506.5C 465.062,506.733 466.395,507.4 467.5,508.5C 467.821,510.048 468.821,510.715 470.5,510.5C 472.996,511.58 475.33,512.914 477.5,514.5C 477.821,516.048 478.821,516.715 480.5,516.5C 481.167,516.833 481.833,517.167 482.5,517.5C 483.035,519.446 484.368,520.446 486.5,520.5C 493.516,524.338 500.183,528.672 506.5,533.5C 507.035,535.446 508.368,536.446 510.5,536.5C 532.12,551.493 552.454,568.16 571.5,586.5C 572.419,589.089 574.086,591.089 576.5,592.5C 582.5,597.833 588.167,603.5 593.5,609.5C 593.738,611.404 594.738,612.738 596.5,613.5C 597.833,614.167 598.833,615.167 599.5,616.5C 599.738,618.404 600.738,619.738 602.5,620.5C 603.833,621.167 604.833,622.167 605.5,623.5C 605.427,625.027 606.094,626.027 607.5,626.5C 608.5,626.833 609.167,627.5 609.5,628.5C 609.427,630.027 610.094,631.027 611.5,631.5C 611.738,633.404 612.738,634.738 614.5,635.5C 616.547,637.55 618.214,639.883 619.5,642.5C 619.427,644.027 620.094,645.027 621.5,645.5C 621.427,647.027 622.094,648.027 623.5,648.5C 623.427,650.027 624.094,651.027 625.5,651.5C 625.427,653.027 626.094,654.027 627.5,654.5C 641.642,675.789 652.308,698.789 659.5,723.5C 659.41,726.152 660.076,728.485 661.5,730.5C 677.418,793.271 657.418,840.771 601.5,873C 571.669,889.043 540.002,899.71 506.5,905C 476.707,910.179 446.707,913.513 416.5,915C 384.103,916.481 351.77,917.481 319.5,918C 322.697,911.999 326.03,906.165 329.5,900.5C 330.906,900.027 331.573,899.027 331.5,897.5C 335.716,887.504 339.716,877.504 343.5,867.5C 344.924,865.485 345.59,863.152 345.5,860.5C 361.621,782.201 340.288,716.201 281.5,662.5C 280.738,660.738 279.404,659.738 277.5,659.5C 274.94,657.727 272.607,655.727 270.5,653.5C 270.027,652.094 269.027,651.427 267.5,651.5C 267.027,650.094 266.027,649.427 264.5,649.5C 264.027,648.094 263.027,647.427 261.5,647.5C 242.73,637.295 223.064,629.129 202.5,623C 140.027,609.954 84.0268,623.287 34.5,663C 23.6667,673.833 12.8333,684.667 2,695.5C 1.13293,690.028 0.299593,684.694 -0.5,679.5C -0.5,660.5 -0.5,641.5 -0.5,622.5C 0.566985,609.525 2.23365,596.525 4.5,583.5C 5.92381,581.485 6.59047,579.152 6.5,576.5C 10.1292,563.613 15.1292,551.279 21.5,539.5C 22.9063,539.027 23.573,538.027 23.5,536.5C 23.6596,534.847 24.3263,533.514 25.5,532.5C 26.9063,532.027 27.573,531.027 27.5,529.5C 27.3284,528.508 27.6618,527.842 28.5,527.5C 29.9063,527.027 30.573,526.027 30.5,524.5C 31.9063,524.027 32.573,523.027 32.5,521.5C 34.2624,520.738 35.2624,519.404 35.5,517.5C 35.7376,515.596 36.7376,514.262 38.5,513.5C 39.9063,513.027 40.573,512.027 40.5,510.5C 41.5,508.833 42.8333,507.5 44.5,506.5C 45.9063,506.027 46.573,505.027 46.5,503.5C 47.5,501.833 48.8333,500.5 50.5,499.5C 53.7642,497.906 56.4309,495.573 58.5,492.5C 58.5,491.833 58.8333,491.5 59.5,491.5C 61.7488,490.92 63.4154,489.587 64.5,487.5C 65.5846,485.413 67.2512,484.08 69.5,483.5C 71.4044,483.262 72.7377,482.262 73.5,480.5C 75.0269,480.573 76.0269,479.906 76.5,478.5C 76.9731,477.094 77.9731,476.427 79.5,476.5C 81.0269,476.573 82.0269,475.906 82.5,474.5C 82.8417,473.662 83.5084,473.328 84.5,473.5C 86.0269,473.573 87.0269,472.906 87.5,471.5C 89.1815,469.992 91.1815,468.992 93.5,468.5C 95.0269,468.573 96.0269,467.906 96.5,466.5C 103.748,462.38 111.415,459.047 119.5,456.5C 121.698,456.88 123.365,456.213 124.5,454.5C 124.833,454.5 125.167,454.5 125.5,454.5C 129.162,454.277 132.495,453.277 135.5,451.5C 137.515,450.076 139.848,449.41 142.5,449.5C 145.152,449.59 147.485,448.924 149.5,447.5C 185.936,438.865 222.936,436.365 260.5,440C 331.719,447.574 398.386,469.074 460.5,504.5 Z"/></g>
<g><path style="opacity:1" fill="#5a5a5a" d="M 483.5,441.5 C 483.59,444.152 482.924,446.485 481.5,448.5C 481.41,445.848 482.076,443.515 483.5,441.5 Z"/></g>
<g><path style="opacity:1" fill="#5f5f5f" d="M 149.5,447.5 C 147.485,448.924 145.152,449.59 142.5,449.5C 144.515,448.076 146.848,447.41 149.5,447.5 Z"/></g>
<g><path style="opacity:1" fill="#565656" d="M 135.5,451.5 C 132.495,453.277 129.162,454.277 125.5,454.5C 128.505,452.723 131.838,451.723 135.5,451.5 Z"/></g>
<g><path style="opacity:1" fill="#676767" d="M 481.5,448.5 C 481.167,451.167 480.833,453.833 480.5,456.5C 479.254,453.707 479.587,451.04 481.5,448.5 Z"/></g>
<g><path style="opacity:1" fill="#757575" d="M 124.5,454.5 C 123.365,456.213 121.698,456.88 119.5,456.5C 120.93,455.463 122.597,454.796 124.5,454.5 Z"/></g>
<g><path style="opacity:1" fill="#848484" d="M 480.5,456.5 C 482.404,456.738 483.738,457.738 484.5,459.5C 482.596,459.262 481.262,458.262 480.5,456.5 Z"/></g>
<g><path style="opacity:1" fill="#787878" d="M 96.5,466.5 C 96.0269,467.906 95.0269,468.573 93.5,468.5C 93.9731,467.094 94.9731,466.427 96.5,466.5 Z"/></g>
<g><path style="opacity:1" fill="#8f8f8f" d="M 494.5,466.5 C 496.027,466.427 497.027,467.094 497.5,468.5C 495.973,468.573 494.973,467.906 494.5,466.5 Z"/></g>
<g><path style="opacity:1" fill="#a5a5a5" d="M 497.5,468.5 C 499.027,468.427 500.027,469.094 500.5,470.5C 498.973,470.573 497.973,469.906 497.5,468.5 Z"/></g>
<g><path style="opacity:1" fill="#777777" d="M 87.5,471.5 C 87.0269,472.906 86.0269,473.573 84.5,473.5C 84.9731,472.094 85.9731,471.427 87.5,471.5 Z"/></g>
<g><path style="opacity:1" fill="#a0a0a0" d="M 502.5,471.5 C 504.027,471.427 505.027,472.094 505.5,473.5C 503.973,473.573 502.973,472.906 502.5,471.5 Z"/></g>
<g><path style="opacity:1" fill="#818181" d="M 82.5,474.5 C 82.0269,475.906 81.0269,476.573 79.5,476.5C 79.9731,475.094 80.9731,474.427 82.5,474.5 Z"/></g>
<g><path style="opacity:1" fill="#767676" d="M 76.5,478.5 C 76.0269,479.906 75.0269,480.573 73.5,480.5C 73.9731,479.094 74.9731,478.427 76.5,478.5 Z"/></g>
<g><path style="opacity:1" fill="#a4a4a4" d="M 514.5,478.5 C 516.027,478.427 517.027,479.094 517.5,480.5C 515.973,480.573 514.973,479.906 514.5,478.5 Z"/></g>
<g><path style="opacity:1" fill="#797979" d="M 73.5,480.5 C 72.7377,482.262 71.4044,483.262 69.5,483.5C 70.2623,481.738 71.5956,480.738 73.5,480.5 Z"/></g>
<g><path style="opacity:1" fill="#a5a5a5" d="M 521.5,482.5 C 523.027,482.427 524.027,483.094 524.5,484.5C 522.973,484.573 521.973,483.906 521.5,482.5 Z"/></g>
<g><path style="opacity:1" fill="#a4a4a4" d="M 532.5,488.5 C 534.027,488.427 535.027,489.094 535.5,490.5C 533.973,490.573 532.973,489.906 532.5,488.5 Z"/></g>
<g><path style="opacity:1" fill="#575757" d="M 64.5,487.5 C 63.4154,489.587 61.7488,490.92 59.5,491.5C 60.5846,489.413 62.2512,488.08 64.5,487.5 Z"/></g>
<g><path style="opacity:1" fill="#7a7a7a" d="M 58.5,492.5 C 56.4309,495.573 53.7642,497.906 50.5,499.5C 52.5691,496.427 55.2358,494.094 58.5,492.5 Z"/></g>
<g><path style="opacity:1" fill="#9c9c9c" d="M 46.5,503.5 C 46.573,505.027 45.9063,506.027 44.5,506.5C 44.427,504.973 45.0937,503.973 46.5,503.5 Z"/></g>
<g><path style="opacity:1" fill="#787878" d="M 460.5,504.5 C 461.71,504.932 462.71,505.599 463.5,506.5C 461.821,506.715 460.821,506.048 460.5,504.5 Z"/></g>
<g><path style="opacity:1" fill="#7d7d7d" d="M 467.5,508.5 C 468.71,508.932 469.71,509.599 470.5,510.5C 468.821,510.715 467.821,510.048 467.5,508.5 Z"/></g>
<g><path style="opacity:1" fill="#9d9d9d" d="M 40.5,510.5 C 40.573,512.027 39.9063,513.027 38.5,513.5C 38.427,511.973 39.0937,510.973 40.5,510.5 Z"/></g>
<g><path style="opacity:1" fill="#777777" d="M 477.5,514.5 C 478.71,514.932 479.71,515.599 480.5,516.5C 478.821,516.715 477.821,516.048 477.5,514.5 Z"/></g>
<g><path style="opacity:1" fill="#858585" d="M 482.5,517.5 C 484.23,518.026 485.564,519.026 486.5,520.5C 484.368,520.446 483.035,519.446 482.5,517.5 Z"/></g>
<g><path style="opacity:1" fill="#767676" d="M 35.5,517.5 C 35.2624,519.404 34.2624,520.738 32.5,521.5C 32.7376,519.596 33.7376,518.262 35.5,517.5 Z"/></g>
<g><path style="opacity:1" fill="#909090" d="M 32.5,521.5 C 32.573,523.027 31.9063,524.027 30.5,524.5C 30.427,522.973 31.0937,521.973 32.5,521.5 Z"/></g>
<g><path style="opacity:1" fill="#999999" d="M 30.5,524.5 C 30.573,526.027 29.9063,527.027 28.5,527.5C 28.427,525.973 29.0937,524.973 30.5,524.5 Z"/></g>
<g><path style="opacity:1" fill="#8e8e8e" d="M 27.5,529.5 C 27.573,531.027 26.9063,532.027 25.5,532.5C 25.427,530.973 26.0937,529.973 27.5,529.5 Z"/></g>
<g><path style="opacity:1" fill="#7c7c7c" d="M 506.5,533.5 C 508.23,534.026 509.564,535.026 510.5,536.5C 508.368,536.446 507.035,535.446 506.5,533.5 Z"/></g>
<g><path style="opacity:1" fill="#a5a5a5" d="M 23.5,536.5 C 23.573,538.027 22.9063,539.027 21.5,539.5C 21.427,537.973 22.0937,536.973 23.5,536.5 Z"/></g>
<g><path style="opacity:1" fill="#727272" d="M 6.5,576.5 C 6.59047,579.152 5.92381,581.485 4.5,583.5C 4.40953,580.848 5.07619,578.515 6.5,576.5 Z"/></g>
<g><path style="opacity:1" fill="#aaaaaa" d="M 571.5,586.5 C 573.914,587.911 575.581,589.911 576.5,592.5C 574.086,591.089 572.419,589.089 571.5,586.5 Z"/></g>
<g><path style="opacity:1" fill="#989898" d="M 593.5,609.5 C 595.262,610.262 596.262,611.596 596.5,613.5C 594.738,612.738 593.738,611.404 593.5,609.5 Z"/></g>
<g><path style="opacity:1" fill="#878787" d="M 599.5,616.5 C 601.262,617.262 602.262,618.596 602.5,620.5C 600.738,619.738 599.738,618.404 599.5,616.5 Z"/></g>
<g><path style="opacity:1" fill="#969696" d="M 605.5,623.5 C 606.906,623.973 607.573,624.973 607.5,626.5C 606.094,626.027 605.427,625.027 605.5,623.5 Z"/></g>
<g><path style="opacity:1" fill="#a1a1a1" d="M 609.5,628.5 C 610.906,628.973 611.573,629.973 611.5,631.5C 610.094,631.027 609.427,630.027 609.5,628.5 Z"/></g>
<g><path style="opacity:1" fill="#767676" d="M 611.5,631.5 C 613.262,632.262 614.262,633.596 614.5,635.5C 612.738,634.738 611.738,633.404 611.5,631.5 Z"/></g>
<g><path style="opacity:1" fill="#7d7d7d" d="M 619.5,642.5 C 620.906,642.973 621.573,643.973 621.5,645.5C 620.094,645.027 619.427,644.027 619.5,642.5 Z"/></g>
<g><path style="opacity:1" fill="#7c7c7c" d="M 621.5,645.5 C 622.906,645.973 623.573,646.973 623.5,648.5C 622.094,648.027 621.427,647.027 621.5,645.5 Z"/></g>
<g><path style="opacity:1" fill="#828282" d="M 261.5,647.5 C 263.027,647.427 264.027,648.094 264.5,649.5C 262.973,649.573 261.973,648.906 261.5,647.5 Z"/></g>
<g><path style="opacity:1" fill="#898989" d="M 264.5,649.5 C 266.027,649.427 267.027,650.094 267.5,651.5C 265.973,651.573 264.973,650.906 264.5,649.5 Z"/></g>
<g><path style="opacity:1" fill="#818181" d="M 623.5,648.5 C 624.906,648.973 625.573,649.973 625.5,651.5C 624.094,651.027 623.427,650.027 623.5,648.5 Z"/></g>
<g><path style="opacity:1" fill="#828282" d="M 267.5,651.5 C 269.027,651.427 270.027,652.094 270.5,653.5C 268.973,653.573 267.973,652.906 267.5,651.5 Z"/></g>
<g><path style="opacity:1" fill="#969696" d="M 625.5,651.5 C 626.906,651.973 627.573,652.973 627.5,654.5C 626.094,654.027 625.427,653.027 625.5,651.5 Z"/></g>
<g><path style="opacity:1" fill="#959595" d="M 277.5,659.5 C 279.404,659.738 280.738,660.738 281.5,662.5C 279.596,662.262 278.262,661.262 277.5,659.5 Z"/></g>
<g><path style="opacity:1" fill="#020202" d="M 232.5,682.5 C 232.821,684.048 233.821,684.715 235.5,684.5C 246.116,690.974 255.783,698.641 264.5,707.5C 264.427,709.027 265.094,710.027 266.5,710.5C 268.167,711.5 269.5,712.833 270.5,714.5C 270.427,716.027 271.094,717.027 272.5,717.5C 274.587,718.585 275.92,720.251 276.5,722.5C 276.738,724.404 277.738,725.738 279.5,726.5C 279.427,728.027 280.094,729.027 281.5,729.5C 281.427,731.027 282.094,732.027 283.5,732.5C 290.99,743.484 296.323,755.484 299.5,768.5C 299.41,771.152 300.076,773.485 301.5,775.5C 315.797,845.458 293.13,899.958 233.5,939C 197.337,959.579 159.337,964.412 119.5,953.5C 117.485,952.076 115.152,951.41 112.5,951.5C 101.247,948.704 90.9138,944.037 81.5,937.5C 81.0269,936.094 80.0269,935.427 78.5,935.5C 78.0269,934.094 77.0269,933.427 75.5,933.5C 72.4669,931.984 69.8003,929.984 67.5,927.5C 67.0269,926.094 66.0269,925.427 64.5,925.5C 62.8333,924.5 61.5,923.167 60.5,921.5C 59.4154,919.413 57.7488,918.08 55.5,917.5C 48.7805,911.114 42.7805,904.114 37.5,896.5C 37.4456,894.368 36.4456,893.035 34.5,892.5C 14.7851,862.117 6.95172,828.783 11,792.5C 11.3583,786.538 12.525,780.871 14.5,775.5C 15.9238,773.485 16.5905,771.152 16.5,768.5C 19.8838,756.404 24.8838,745.071 31.5,734.5C 32.9063,734.027 33.573,733.027 33.5,731.5C 35.4002,727.268 38.0669,723.601 41.5,720.5C 43.2624,719.738 44.2624,718.404 44.5,716.5C 45.5,714.833 46.8333,713.5 48.5,712.5C 54.4422,708.227 59.7756,703.227 64.5,697.5C 64.5,696.833 64.8333,696.5 65.5,696.5C 67.7488,695.92 69.4154,694.587 70.5,692.5C 71.2623,690.738 72.5956,689.738 74.5,689.5C 76.4044,689.262 77.7377,688.262 78.5,686.5C 80.0269,686.573 81.0269,685.906 81.5,684.5C 88.9033,679.465 96.9033,675.465 105.5,672.5C 110.165,671.943 114.498,670.61 118.5,668.5C 158.255,657.899 196.255,662.565 232.5,682.5 Z"/></g>
<g><path style="opacity:1" fill="#5f5f5f" d="M 118.5,668.5 C 114.498,670.61 110.165,671.943 105.5,672.5C 109.502,670.39 113.835,669.057 118.5,668.5 Z"/></g>
<g><path style="opacity:1" fill="#7f7f7f" d="M 232.5,682.5 C 233.71,682.932 234.71,683.599 235.5,684.5C 233.821,684.715 232.821,684.048 232.5,682.5 Z"/></g>
<g><path style="opacity:1" fill="#8c8c8c" d="M 81.5,684.5 C 81.0269,685.906 80.0269,686.573 78.5,686.5C 78.9731,685.094 79.9731,684.427 81.5,684.5 Z"/></g>
<g><path style="opacity:1" fill="#7b7b7b" d="M 78.5,686.5 C 77.7377,688.262 76.4044,689.262 74.5,689.5C 75.2623,687.738 76.5956,686.738 78.5,686.5 Z"/></g>
<g><path style="opacity:1" fill="#5c5c5c" d="M 70.5,692.5 C 69.4154,694.587 67.7488,695.92 65.5,696.5C 66.5846,694.413 68.2512,693.08 70.5,692.5 Z"/></g>
<g><path style="opacity:1" fill="#535353" d="M 64.5,697.5 C 59.7756,703.227 54.4422,708.227 48.5,712.5C 53.2244,706.773 58.5578,701.773 64.5,697.5 Z"/></g>
<g><path style="opacity:1" fill="#939393" d="M 264.5,707.5 C 265.906,707.973 266.573,708.973 266.5,710.5C 265.094,710.027 264.427,709.027 264.5,707.5 Z"/></g>
<g><path style="opacity:1" fill="#7d7d7d" d="M 270.5,714.5 C 271.906,714.973 272.573,715.973 272.5,717.5C 271.094,717.027 270.427,716.027 270.5,714.5 Z"/></g>
<g><path style="opacity:1" fill="#878787" d="M 44.5,716.5 C 44.2624,718.404 43.2624,719.738 41.5,720.5C 41.7376,718.596 42.7376,717.262 44.5,716.5 Z"/></g>
<g><path style="opacity:1" fill="#797979" d="M 276.5,722.5 C 278.262,723.262 279.262,724.596 279.5,726.5C 277.738,725.738 276.738,724.404 276.5,722.5 Z"/></g>
<g><path style="opacity:1" fill="#909090" d="M 279.5,726.5 C 280.906,726.973 281.573,727.973 281.5,729.5C 280.094,729.027 279.427,728.027 279.5,726.5 Z"/></g>
<g><path style="opacity:1" fill="#727272" d="M 659.5,723.5 C 660.924,725.515 661.59,727.848 661.5,730.5C 660.076,728.485 659.41,726.152 659.5,723.5 Z"/></g>
<g><path style="opacity:1" fill="#a3a3a3" d="M 281.5,729.5 C 282.906,729.973 283.573,730.973 283.5,732.5C 282.094,732.027 281.427,731.027 281.5,729.5 Z"/></g>
<g><path style="opacity:1" fill="#8c8c8c" d="M 33.5,731.5 C 33.573,733.027 32.9063,734.027 31.5,734.5C 31.427,732.973 32.0937,731.973 33.5,731.5 Z"/></g>
<g><path style="opacity:1" fill="#5f5f5f" d="M 299.5,768.5 C 300.924,770.515 301.59,772.848 301.5,775.5C 300.076,773.485 299.41,771.152 299.5,768.5 Z"/></g>
<g><path style="opacity:1" fill="#6a6a6a" d="M 16.5,768.5 C 16.5905,771.152 15.9238,773.485 14.5,775.5C 14.4095,772.848 15.0762,770.515 16.5,768.5 Z"/></g>
<g><path style="opacity:1" fill="#6b6b6b" d="M 345.5,860.5 C 345.59,863.152 344.924,865.485 343.5,867.5C 343.41,864.848 344.076,862.515 345.5,860.5 Z"/></g>
<g><path style="opacity:1" fill="#858585" d="M 34.5,892.5 C 36.4456,893.035 37.4456,894.368 37.5,896.5C 36.0256,895.564 35.0256,894.23 34.5,892.5 Z"/></g>
<g><path style="opacity:1" fill="#8b8b8b" d="M 738.5,894.5 C 719.338,895.332 700.004,895.832 680.5,896C 678.559,898.454 676.225,900.287 673.5,901.5C 675.294,899.203 677.294,897.037 679.5,895C 699.164,894.5 718.831,894.333 738.5,894.5 Z"/></g>
<g><path style="opacity:1" fill="#a3a3a3" d="M 331.5,897.5 C 331.573,899.027 330.906,900.027 329.5,900.5C 329.427,898.973 330.094,897.973 331.5,897.5 Z"/></g>
<g><path style="opacity:1" fill="#838383" d="M 671.5,903.5 C 671.573,905.027 670.906,906.027 669.5,906.5C 669.427,904.973 670.094,903.973 671.5,903.5 Z"/></g>
<g><path style="opacity:1" fill="#939393" d="M 977.5,905.5 C 978.167,906.5 978.833,907.5 979.5,908.5C 979.5,909.833 979.5,911.167 979.5,912.5C 978.076,910.485 977.41,908.152 977.5,905.5 Z"/></g>
<g><path style="opacity:1" fill="#969696" d="M 55.5,917.5 C 57.7488,918.08 59.4154,919.413 60.5,921.5C 58.2512,920.92 56.5846,919.587 55.5,917.5 Z"/></g>
<g><path style="opacity:1" fill="#959595" d="M 64.5,925.5 C 66.0269,925.427 67.0269,926.094 67.5,927.5C 65.9731,927.573 64.9731,926.906 64.5,925.5 Z"/></g>
<g><path style="opacity:1" fill="#787878" d="M 75.5,933.5 C 77.0269,933.427 78.0269,934.094 78.5,935.5C 76.9731,935.573 75.9731,934.906 75.5,933.5 Z"/></g>
<g><path style="opacity:1" fill="#949494" d="M 78.5,935.5 C 80.0269,935.427 81.0269,936.094 81.5,937.5C 79.9731,937.573 78.9731,936.906 78.5,935.5 Z"/></g>
<g><path style="opacity:1" fill="#646464" d="M 112.5,951.5 C 115.152,951.41 117.485,952.076 119.5,953.5C 116.848,953.59 114.515,952.924 112.5,951.5 Z"/></g>
<g><path style="opacity:1" fill="#aaaaaa" d="M 676.5,971.5 C 774.096,972.497 871.763,972.831 969.5,972.5C 969.5,972.833 969.5,973.167 969.5,973.5C 871.833,973.5 774.167,973.5 676.5,973.5C 676.5,972.833 676.5,972.167 676.5,971.5 Z"/></g>
</svg>
