<svg fill="#ee2e91" width="800px" height="800px" viewBox="0 0 32 32" version="1.1" xmlns="http://www.w3.org/2000/svg" data-originalfillcolor="#fe0179" transform="rotate(0) scale(1, 1)">
<title>backward</title>
<path d="M0 16q0 1.12 0.896 1.664l12 8q0.448 0.32 0.992 0.352t1.056-0.224q0.48-0.288 0.768-0.768t0.288-1.024v-16q0-0.544-0.288-1.024t-0.768-0.736-1.056-0.224-0.992 0.32l-12 8q-0.896 0.608-0.896 1.664zM16 16q0 1.12 0.896 1.664l12 8q0.448 0.32 0.992 0.352t1.056-0.224q0.48-0.288 0.768-0.768t0.288-1.024v-16q0-0.544-0.288-1.024t-0.768-0.736-1.056-0.224-0.992 0.32l-12 8q-0.896 0.608-0.896 1.664z"/>
</svg>