<?xml version="1.0" encoding="utf-8"?>
<!-- Uploaded to: SVG Repo, www.svgrepo.com, Generator: SVG Repo Mixer Tools -->
<svg fill="#000000" width="800px" height="800px" viewBox="0 0 32 32" version="1.1" xmlns="http://www.w3.org/2000/svg">
<title>number18</title>
<path d="M15.93 11.443c-0.459 0-0.84 0.18-1.143 0.539s-0.454 0.949-0.454 1.768c0 0.83 0.165 1.439 0.494 1.828 0.329 0.39 0.741 0.584 1.234 0.584 0.477 0 0.878-0.188 1.204-0.562s0.489-0.924 0.489-1.649c0-0.795-0.184-1.412-0.551-1.851s-0.792-0.657-1.273-0.657zM16 3c-7.18 0-13 5.82-13 13s5.82 13 13 13 13-5.82 13-13-5.82-13-13-13zM19.213 21.003c-0.871 1.044-2.006 1.565-3.403 1.565-1.007 0-1.819-0.27-2.439-0.807-0.62-0.539-1.018-1.343-1.193-2.413l2.391-0.265c0.059 0.488 0.211 0.85 0.456 1.085s0.568 0.353 0.972 0.353c0.508 0 0.94-0.234 1.297-0.705 0.355-0.471 0.583-1.444 0.683-2.923-0.622 0.721-1.399 1.081-2.332 1.081-1.015 0-1.891-0.391-2.627-1.172-0.736-0.782-1.104-1.799-1.104-3.052 0-1.305 0.389-2.357 1.165-3.156s1.767-1.198 2.969-1.198c1.307 0 2.38 0.506 3.219 1.517 0.838 1.011 1.257 2.675 1.257 4.99-0.003 2.357-0.439 4.056-1.311 5.1z"></path>
</svg>