<?xml version="1.0" encoding="utf-8"?>

<!DOCTYPE svg PUBLIC "-//W3C//DTD SVG 1.1//EN" "http://www.w3.org/Graphics/SVG/1.1/DTD/svg11.dtd">
<!-- Uploaded to: SVG Repo, www.svgrepo.com, Generator: SVG Repo Mixer Tools -->
<svg height="800px" width="800px" version="1.1" id="_x32_" xmlns="http://www.w3.org/2000/svg" xmlns:xlink="http://www.w3.org/1999/xlink" 
	 viewBox="0 0 512 512"  xml:space="preserve">
<style type="text/css">
	.st0{fill:#000000;}
</style>
<g>
	<path class="st0" d="M230.546,324.601c6.688,6.703,15.969,10.547,25.454,10.547c9.469,0,18.75-3.844,25.453-10.547L398.422,207.64
		c14.062-14.054,14.062-36.851,0-50.906c-14.062-14.062-36.859-14.062-50.906,0v-0.007L292,212.242V38.188c0-19.883-16.125-36-36-36
		c-19.89,0-36,16.117-36,36v174.046l-55.5-55.5c-14.062-14.062-36.859-14.062-50.906-0.007c-14.062,14.062-14.062,36.859,0,50.914
		L230.546,324.601z"/>
	<path class="st0" d="M473.453,383.148H333.406c-13.36,29.469-42.954,50-77.406,50c-34.454,0-64.047-20.531-77.39-50H38.562
		C17.266,383.148,0,400.406,0,421.696v49.562c0,21.297,17.266,38.554,38.562,38.554h434.89c21.297,0,38.547-17.258,38.547-38.554
		v-49.562C512,400.406,494.75,383.148,473.453,383.148z"/>
</g>
</svg>