<?xml version="1.0" encoding="utf-8"?>

<!-- Uploaded to: SVG Repo, www.svgrepo.com, Generator: SVG Repo Mixer Tools -->
<svg version="1.1" id="Icons" xmlns="http://www.w3.org/2000/svg" xmlns:xlink="http://www.w3.org/1999/xlink" 
	 viewBox="0 0 32 32" xml:space="preserve">
<style type="text/css">
	.st0{fill:none;stroke:#000000;stroke-width:2;stroke-linecap:round;stroke-linejoin:round;stroke-miterlimit:10;}
</style>
<g>
	<polygon points="20,2.6 20,8 25.4,8 	"/>
</g>
<path d="M23.5,10H19c-0.6,0-1-0.4-1-1V2H7C6.4,2,6,2.4,6,3v12h7.6l-2.3-2.3c-0.4-0.4-0.4-1,0-1.4s1-0.4,1.4,0l4,4
	c0.1,0.1,0.2,0.2,0.2,0.3c0.1,0.2,0.1,0.5,0,0.8c-0.1,0.1-0.1,0.2-0.2,0.3l-4,4C12.5,20.9,12.3,21,12,21s-0.5-0.1-0.7-0.3
	c-0.4-0.4-0.4-1,0-1.4l2.3-2.3H6v12c0,0.6,0.4,1,1,1h18c0.6,0,1-0.4,1-1V12.5C26,11.1,24.9,10,23.5,10z"/>
</svg>