<?xml version="1.0" encoding="iso-8859-1"?>
<!-- Uploaded to: SVG Repo, www.svgrepo.com, Generator: SVG Repo Mixer Tools -->
<svg fill="#000000" height="800px" width="800px" version="1.1" id="Layer_1" xmlns="http://www.w3.org/2000/svg" xmlns:xlink="http://www.w3.org/1999/xlink" 
	 viewBox="0 0 512 512" xml:space="preserve">
<g>
	<g>
		<path d="M461.913,289.391H50.087C22.468,289.391,0,311.859,0,339.478v100.174c0,27.619,22.468,50.087,50.087,50.087h411.826
			c27.619,0,50.087-22.468,50.087-50.087V339.478C512,311.859,489.532,289.391,461.913,289.391z M157.847,401.369
			c6.521,6.521,6.521,17.087,0,23.609c-3.261,3.261-7.533,4.892-11.804,4.892c-4.271,0-8.544-1.631-11.804-4.892l-11.805-11.804
			l-11.804,11.804c-3.261,3.261-7.533,4.892-11.804,4.892s-8.544-1.631-11.804-4.892c-6.521-6.521-6.521-17.087,0-23.609
			l11.803-11.804l-11.804-11.804c-6.521-6.521-6.521-17.087,0-23.609c6.521-6.521,17.087-6.521,23.609,0l11.804,11.804
			l11.804-11.804c6.521-6.521,17.087-6.521,23.609,0c6.521,6.521,6.521,17.087,0,23.609l-11.804,11.804L157.847,401.369z
			 M291.413,401.369c6.521,6.521,6.521,17.087,0,23.609c-3.261,3.261-7.533,4.892-11.804,4.892c-4.271,0-8.544-1.631-11.804-4.892
			L256,413.174l-11.804,11.804c-3.261,3.261-7.533,4.892-11.804,4.892c-4.271,0-8.544-1.631-11.804-4.892
			c-6.521-6.521-6.521-17.087,0-23.609l11.803-11.804l-11.804-11.804c-6.521-6.521-6.521-17.087,0-23.609
			c6.521-6.521,17.087-6.521,23.609,0L256,365.956l11.804-11.804c6.521-6.521,17.087-6.521,23.609,0
			c6.521,6.521,6.521,17.087,0,23.609l-11.804,11.804L291.413,401.369z M424.978,401.369c6.521,6.521,6.521,17.087,0,23.609
			c-3.261,3.261-7.533,4.892-11.804,4.892s-8.544-1.631-11.804-4.892l-11.805-11.804l-11.804,11.804
			c-3.261,3.261-7.533,4.892-11.804,4.892s-8.544-1.631-11.804-4.892c-6.521-6.521-6.521-17.087,0-23.609l11.803-11.804
			l-11.804-11.804c-6.521-6.521-6.521-17.087,0-23.609c6.521-6.521,17.087-6.521,23.609,0l11.804,11.804l11.804-11.804
			c6.521-6.521,17.087-6.521,23.609,0c6.521,6.521,6.521,17.087,0,23.609l-11.804,11.804L424.978,401.369z"/>
	</g>
</g>
<g>
	<g>
		<path d="M339.478,122.435h-16.696V89.043c0-36.826-29.956-66.783-66.783-66.783s-66.783,29.956-66.783,66.783v33.391h-16.696
			c-9.217,0-16.696,7.479-16.696,16.696v100.174c0,9.217,7.479,16.696,16.696,16.696h166.957c9.217,0,16.696-7.479,16.696-16.696
			V139.13C356.174,129.913,348.695,122.435,339.478,122.435z M289.391,122.435h-66.783V89.043c0-18.413,14.978-33.391,33.391-33.391
			s33.391,14.978,33.391,33.391V122.435z"/>
	</g>
</g>
</svg>