<?xml version="1.0" encoding="utf-8"?>

<!-- Uploaded to: SVG Repo, www.svgrepo.com, Generator: SVG Repo Mixer Tools -->
<svg version="1.1" id="Icons" xmlns="http://www.w3.org/2000/svg" xmlns:xlink="http://www.w3.org/1999/xlink" 
	 viewBox="0 0 32 32" xml:space="preserve">
<style type="text/css">
	.st0{fill:none;stroke:#000000;stroke-width:2;stroke-linecap:round;stroke-linejoin:round;stroke-miterlimit:10;}
</style>
<polygon points="22,2.6 22,8 27.4,8 "/>
<path d="M25.5,10H21c-0.6,0-1-0.4-1-1V2H9C8.4,2,8,2.4,8,3v12H4.4l2.3-2.3c0.4-0.4,0.4-1,0-1.4s-1-0.4-1.4,0l-4,4
	c-0.1,0.1-0.2,0.2-0.2,0.3c-0.1,0.2-0.1,0.5,0,0.8c0.1,0.1,0.1,0.2,0.2,0.3l4,4C5.5,20.9,5.7,21,6,21s0.5-0.1,0.7-0.3
	c0.4-0.4,0.4-1,0-1.4L4.4,17H8v12c0,0.6,0.4,1,1,1h18c0.6,0,1-0.4,1-1V12.5C28,11.1,26.9,10,25.5,10z M15,17h-4c-0.6,0-1-0.4-1-1
	s0.4-1,1-1h4c0.6,0,1,0.4,1,1S15.6,17,15,17z"/>
</svg>